PathFileType	4	(X/Y/Z)
DataRate	CameraRate	NumFrames	NumMarkers	Units	OrigDataRate	OrigDataStartFrame	OrigNumFrames	
  100.0	  100.0	    4	     56	     mm	  100.0	      199	    317
Frame#	Time	LASI			RASI			LPSI			RPSI			RTH1			RTH2			RTH3			RLFC			RMFC			LTH1			LTH2			LTH3			LLFC			LMFC			RTB1			RTB2			RTB3			RLMAL			RMMAL			LTB1			LTB2			LTB3			LMMAL			LLMAL			RCAL			RTOE			RMT5			LCAL			LTOE			LMT5			LACR			RACR			CLAV			C7			LASH			LPSH			RASH			RPSH			RUA1			RUA2			RUA3			RLEL			RMEL			LUA1			LUA2			LUA3			LLEL			LMEL			RFAsuperior			RFAradius			RFAulna			LFAsuperior			LFAradius			LFAulna			RHJC			LHJC			
		X1	Y1	Z1	X2	Y2	Z2	X3	Y3	Z3	X4	Y4	Z4	X5	Y5	Z5	X6	Y6	Z6	X7	Y7	Z7	X8	Y8	Z8	X9	Y9	Z9	X10	Y10	Z10	X11	Y11	Z11	X12	Y12	Z12	X13	Y13	Z13	X14	Y14	Z14	X15	Y15	Z15	X16	Y16	Z16	X17	Y17	Z17	X18	Y18	Z18	X19	Y19	Z19	X20	Y20	Z20	X21	Y21	Z21	X22	Y22	Z22	X23	Y23	Z23	X24	Y24	Z24	X25	Y25	Z25	X26	Y26	Z26	X27	Y27	Z27	X28	Y28	Z28	X29	Y29	Z29	X30	Y30	Z30	X31	Y31	Z31	X32	Y32	Z32	X33	Y33	Z33	X34	Y34	Z34	X35	Y35	Z35	X36	Y36	Z36	X37	Y37	Z37	X38	Y38	Z38	X39	Y39	Z39	X40	Y40	Z40	X41	Y41	Z41	X42	Y42	Z42	X43	Y43	Z43	X44	Y44	Z44	X45	Y45	Z45	X46	Y46	Z46	X47	Y47	Z47	X48	Y48	Z48	X49	Y49	Z49	X50	Y50	Z50	X51	Y51	Z51	X52	Y52	Z52	X53	Y53	Z53	X54	Y54	Z54	X55	Y55	Z55	X56	Y56	Z56	

271	2.71000	768.53540	1032.08794	-415.26749	509.53435	1034.08922	-432.92787	699.76468	1086.01946	-590.46012	605.51409	1084.41293	-600.99887	440.45374	871.93749	-499.82602	431.54493	771.60541	-470.28838	435.76386	637.88128	-543.95572	430.27102	520.21641	-524.31905	546.63847	512.50370	-496.21375	839.51448	896.71617	-512.58592	848.87952	766.97423	-461.78641	844.33467	652.58391	-547.65893	849.30467	492.25374	-551.41416	734.68711	474.23543	-528.87812	451.43068	369.17325	-492.92908	402.09095	276.74984	-552.99077	448.15749	194.06527	-520.44099	399.51826	122.21455	-578.75373	486.52598	128.54960	-541.50189	828.96225	364.74025	-511.53960	870.53411	313.02891	-560.10239	835.47780	226.79021	-529.02373	789.17112	133.76006	-542.70262	874.16998	127.05596	-579.09768	454.83569	103.71968	-642.58661	422.89790	78.84149	-408.25225	351.93079	59.03474	-437.48647	803.17688	103.26485	-640.35058	860.96407	77.54202	-403.32225	934.52848	58.72648	-454.89576	786.96586	1572.85776	-531.29747	477.46947	1556.19716	-558.84817	594.26848	1510.24515	-471.76856	634.98706	1577.05572	-588.65844	759.38323	1525.42341	-453.98960	820.10297	1503.06975	-590.32796	506.29949	1511.93689	-486.90389	454.06604	1502.65133	-614.06026	345.07926	1520.15277	-542.24195	321.18746	1468.31284	-568.79979	264.79152	1493.45116	-518.62059	184.67616	1484.21447	-489.76665	207.09789	1396.05551	-485.59892	909.12860	1521.54801	-521.87883	942.53354	1440.22280	-531.63594	1007.49595	1474.48398	-472.43868	1072.85965	1455.24321	-444.09440	1040.72626	1370.05768	-432.66005	194.93251	1503.46288	-399.90192	198.07679	1486.44463	-216.31626	130.29732	1502.09421	-236.17430	1078.38820	1476.23524	-355.52239	1043.68359	1463.77573	-172.43681	1115.19953	1468.24747	-177.22968	548.98357	946.17217	-512.74794	750.74500	934.08442	-497.52782	
272	2.72000	768.47215	1032.08932	-415.12720	509.46034	1034.09162	-432.81167	699.69631	1086.03339	-590.30983	605.44513	1084.44556	-600.85453	440.40995	871.94539	-499.74284	431.47878	771.58067	-470.21274	435.74088	637.75062	-543.90052	430.24026	520.22631	-524.30490	546.60674	512.51108	-496.19175	839.41610	896.70269	-512.44103	848.82183	766.95563	-461.69400	844.26690	652.57776	-547.57069	849.24238	492.25891	-551.35655	734.65011	474.22667	-528.82353	451.41427	369.17383	-492.90611	402.08783	276.74665	-552.98760	448.14806	194.06418	-520.42677	399.51527	122.21497	-578.74740	486.49806	128.53823	-541.45173	828.93779	364.74069	-511.51415	870.49600	313.02584	-560.06170	835.45330	226.76872	-529.00033	789.16240	133.75615	-542.69658	874.16591	127.05928	-579.09182	454.83554	103.72423	-642.57999	422.89972	78.81941	-408.26756	351.92616	59.02458	-437.48762	803.16523	103.26190	-640.34040	860.96348	77.54105	-403.31160	934.52200	58.71207	-454.87337	786.91806	1572.91791	-531.06538	477.46777	1556.28045	-558.79184	594.21833	1510.23996	-471.59874	634.94986	1577.06868	-588.45385	759.35130	1525.41019	-453.79062	820.08168	1503.08694	-590.12534	506.29011	1511.95140	-486.69173	454.04454	1502.71183	-613.94790	345.06843	1520.19162	-542.05646	321.15085	1468.34919	-568.63115	264.75003	1493.49921	-518.42077	184.64678	1484.26787	-489.59522	207.08803	1396.11591	-485.46893	909.08565	1521.55000	-521.65146	942.47093	1440.23467	-531.40355	1007.45137	1474.47083	-472.19174	1072.81066	1455.20272	-443.86212	1040.67854	1370.01977	-432.47386	194.86248	1503.45775	-399.67298	198.00253	1486.43828	-216.14078	130.24550	1502.14865	-236.01964	1078.35178	1476.21340	-355.31531	1043.60584	1463.71997	-172.25870	1115.12212	1468.15288	-177.00595	548.91838	946.18282	-512.62955	750.68009	934.09883	-497.40832	
273	2.73000	768.41508	1032.09986	-414.97975	509.38943	1034.10388	-432.71142	699.62192	1086.04686	-590.15796	605.37804	1084.47597	-600.71622	440.36593	871.93040	-499.66750	431.41596	771.56066	-470.11338	435.63550	637.85443	-543.88090	430.19217	520.24200	-524.28429	546.57757	512.51541	-496.16768	839.32698	896.69056	-512.30115	848.76227	766.93985	-461.61719	844.21786	652.57293	-547.51100	849.18593	492.26573	-551.29754	734.61206	474.21987	-528.77923	451.38230	369.16281	-492.88914	402.08745	276.73664	-552.97933	448.14871	194.06010	-520.40962	399.51486	122.21539	-578.73768	486.48577	128.53324	-541.42109	828.90911	364.73948	-511.48949	870.46036	313.02392	-560.02038	835.39488	226.72244	-528.95457	789.14869	133.74237	-542.68775	874.16454	127.06679	-579.09057	454.83630	103.72744	-642.56728	422.90784	78.79605	-408.28849	351.92445	59.01577	-437.48787	803.15909	103.26551	-640.33748	860.95883	77.53533	-403.29521	934.51824	58.70193	-454.85255	786.87500	1572.99475	-530.79557	477.46838	1556.35621	-558.83593	594.14024	1510.23731	-471.42472	634.92408	1577.07408	-588.26212	759.32306	1525.40080	-453.59488	820.06706	1503.09149	-589.93876	506.29053	1511.95481	-486.51672	454.01801	1502.75487	-613.82093	345.05627	1520.22488	-541.88219	321.13253	1468.37340	-568.49329	264.71361	1493.54928	-518.20935	184.61734	1484.30015	-489.45096	207.07473	1396.13834	-485.34830	909.04270	1521.55280	-521.38401	942.42332	1440.23887	-531.18855	1007.41239	1474.44531	-471.95267	1072.77241	1455.14619	-443.65743	1040.62859	1369.98497	-432.24933	194.78923	1503.47555	-399.48747	197.92450	1486.43604	-215.97618	130.17952	1502.18428	-235.85797	1078.33589	1476.19183	-355.14621	1043.54703	1463.68856	-172.09996	1115.07132	1467.97450	-176.94560	548.85762	946.19479	-512.50642	750.62057	934.12121	-497.28901	
274	2.74000	768.35090	1032.09302	-414.85764	509.31862	1034.11254	-432.61955	699.54956	1086.05850	-590.00565	605.31824	1084.50249	-600.58331	440.30924	871.90906	-499.58357	431.36338	771.55330	-469.99424	435.53080	638.02076	-543.87261	430.11707	520.26522	-524.24189	546.54674	512.51844	-496.13518	839.25428	896.68423	-512.17388	848.69913	766.92835	-461.54706	844.18361	652.57151	-547.47334	849.14081	492.27513	-551.24337	734.57424	474.21406	-528.74577	451.33873	369.15360	-492.86359	402.09029	276.72229	-552.96174	448.15473	194.05956	-520.38556	399.51789	122.21785	-578.72560	486.49718	128.54168	-541.42822	828.87818	364.73650	-511.46406	870.43307	313.02637	-559.98448	835.31137	226.66806	-528.89664	789.13881	133.73192	-542.67215	874.15866	127.07542	-579.08100	454.84217	103.73371	-642.55363	422.92575	78.78665	-408.31090	351.92193	59.01126	-437.48465	803.15627	103.27364	-640.33969	860.95343	77.52795	-403.28058	934.51930	58.69996	-454.84067	786.85390	1573.01940	-530.53190	477.45571	1556.39013	-558.79476	594.07202	1510.23219	-471.25851	634.91008	1577.07378	-588.07446	759.29480	1525.39346	-453.39901	820.05182	1503.08339	-589.74809	506.28485	1511.95921	-486.33958	453.98171	1502.76872	-613.64332	345.02453	1520.22088	-541.71155	321.12962	1468.38516	-568.37365	264.67804	1493.58867	-518.02145	184.59705	1484.29653	-489.31964	207.05528	1396.13118	-485.22067	909.00860	1521.53903	-521.12724	942.39293	1440.22938	-530.98337	1007.38231	1474.40532	-471.73640	1072.73938	1455.08938	-443.47257	1040.57987	1369.95828	-431.99726	194.73054	1503.52546	-399.33170	197.84633	1486.44376	-215.81708	130.11123	1502.20524	-235.69385	1078.31535	1476.15437	-354.99639	1043.49799	1463.65599	-171.92761	1115.04632	1467.75593	-177.00735	548.78908	946.20830	-512.40528	750.55175	934.12864	-497.18666	
